# xmcd
#
# Track frame offsets: 
#        150
#        10736
#        22791
#        35409
#        51795
#        67959
#        81866
#        93944
#        108444
#        122828
#        134077
#        145915
#        163200
#        173535
#        186498
#        199055
#        215522
#        227179
#        239947
#        252087
#        267655
#        278964
#        294112
#
# Disc length: 4104 seconds
#
# Revision: 0
# Processed by: cddbd v1.5.2PL0 Copyright (c) Steve Scherf et al.
# Submitted via: ExactAudioCopyFreeDBPlugin 1.0
#
DISCID=56100617
DTITLE=Commander Cody and His Lost Planet Airmen - Commander Cody And Hi
DTITLE=s Lost Planet Airmen - Tales From The Ozone
DYEAR=1974
DGENRE=Country
TTITLE0=Southbound
TTITLE1=Don't Let Go
TTITLE2=California Okie
TTITLE3=Willin'
TTITLE4=The Boogie Man Boogie
TTITLE5=Hawaii Blues
TTITLE6=House Of Blue Light
TTITLE7=Keep On Lovin' Her
TTITLE8=Devil And Me
TTITLE9=Four Or Five Times
TTITLE10=That's What I Like About The South
TTITLE11=Minnie The Moocher
TTITLE12=It's Gonna Be One Of Those Nights
TTITLE13=Connie
TTITLE14=I've Been To Georgia On A Fast Train
TTITLE15=Honky Tonk Music
TTITLE16=Lightnin' Bar Blues
TTITLE17=Paid In Advance
TTITLE18=Cajun Baby
TTITLE19=Tina Louise
TTITLE20=The Shadow Knows
TTITLE21=Roll Your Own
TTITLE22=Gypsy Fiddle
EXTD=
EXTT0=
EXTT1=
EXTT2=
EXTT3=
EXTT4=
EXTT5=
EXTT6=
EXTT7=
EXTT8=
EXTT9=
EXTT10=
EXTT11=
EXTT12=
EXTT13=
EXTT14=
EXTT15=
EXTT16=
EXTT17=
EXTT18=
EXTT19=
EXTT20=
EXTT21=
EXTT22=
PLAYORDER=
